<?xml version="1.0" encoding="utf-8"?>
<!-- Generator: Adobe Illustrator 18.0.0, SVG Export Plug-In . SVG Version: 6.00 Build 0)  -->
<!DOCTYPE svg PUBLIC "-//W3C//DTD SVG 1.1//EN" "http://www.w3.org/Graphics/SVG/1.1/DTD/svg11.dtd">
<svg version="1.1" id="Layer_1" xmlns="http://www.w3.org/2000/svg" xmlns:xlink="http://www.w3.org/1999/xlink" x="0px" y="0px"
	 viewBox="0 0 81.7 32.7" enable-background="new 0 0 81.7 32.7" xml:space="preserve">
<g>
	<rect x="0" y="0" fill="#8D8F8F" width="9.1" height="32.7"/>
	<path fill="#8D8F8F" d="M16.7,0h-2.2v32.7h2.2c3.8,0,6.9-3.1,6.9-6.9V6.9C23.6,3.1,20.5,0,16.7,0z"/>
	<path fill="#8D8F8F" d="M72.5,32.7h2.2c3.8,0,6.9-3.1,6.9-6.9V0h-9.1V32.7z"/>
	<path fill="#8D8F8F" d="M58,32.7h2.2c3.8,0,6.9-3.1,6.9-6.9V0H58V32.7z"/>
	<path fill="#8D8F8F" d="M43.5,32.7h2.2c3.8,0,6.9-3.1,6.9-6.9V0h-9.1V32.7z"/>
</g>
</svg>
